<mxfile host="app.diagrams.net" modified="2023-09-04T11:59:13.160Z" agent="Mozilla/5.0 (Macintosh; Intel Mac OS X 10_15_7) AppleWebKit/537.36 (KHTML, like Gecko) Chrome/116.0.0.0 Safari/537.36" version="21.6.1" etag="mgOMCRJwrm7TYhyednZh" type="github">
  <diagram name="Page-1" id="aNWIws3YuNZw2xNMBV40">
    <mxGraphModel>
      <root>
        <mxCell id="0" />
        <mxCell id="1" parent="0" />
      </root>
    </mxGraphModel>
  </diagram>
</mxfile>
